<svg width="444" height="209" viewBox="0 0 444 209" fill="none" xmlns="http://www.w3.org/2000/svg">
<path d="M204.797 334.291L77.7835 378.758C20.8128 306.401 -60.468 153.845 70.1744 122.483C200.817 91.122 281.473 163.246 305.471 203.228L275.62 254.132L204.797 334.291Z" fill="#FF75D6"/>
<path d="M77.0808 329.43L312.268 329.43L318.729 333.359C409.186 308.039 589.065 236.836 584.93 154.589C579.761 51.7802 389.156 -12.3937 340.697 2.01267C292.238 16.419 210.827 91.725 183.69 154.589C161.981 204.881 86.3418 226.621 51.2361 231.205L77.0808 329.43Z" fill="#00FFFF"/>
<path d="M320.222 154.557C256.433 161.132 211.171 201.129 196.513 220.305L222.31 247.309L367.712 267.855L469.142 238.503C471.487 172.364 473.246 46.6604 461.52 72.9595C446.862 105.833 399.958 146.339 320.222 154.557Z" fill="#FFE403"/>
</svg>
