<svg width="639" height="346" viewBox="0 0 639 346" fill="none" xmlns="http://www.w3.org/2000/svg">
<path d="M323.228 -169.436L519.067 -238C606.909 -126.433 732.234 108.789 530.8 157.145C329.365 205.501 205.002 94.2947 168 32.6473L214.027 -45.8404L323.228 -169.436Z" fill="#FF75D6"/>
<path d="M520.151 -161.942H157.52L147.558 -168C8.08456 -128.959 -269.268 -19.1736 -262.892 107.642C-254.922 266.161 38.9679 365.109 113.686 342.897C188.404 320.684 313.929 204.571 355.771 107.642C389.245 30.0986 505.871 -3.42265 560 -10.4904L520.151 -161.942Z" fill="#00FFFF"/>
<path d="M145.256 107.691C243.611 97.5537 313.4 35.8838 336 6.31602L296.224 -35.3202L72.0318 -67L-84.3604 -21.7432C-87.9764 80.2355 -90.6884 274.055 -72.6084 233.505C-50.0083 182.818 22.3117 120.363 145.256 107.691Z" fill="#FFE403"/>
</svg>
