<?xml version="1.0" encoding="UTF-8"?>
<svg xmlns="http://www.w3.org/2000/svg" xmlns:xlink="http://www.w3.org/1999/xlink" width="48pt" height="48pt" viewBox="0 0 48 48" version="1.1">
<g id="surface6114856">
<path style=" stroke:none;fill-rule:nonzero;fill:rgb(100%,100%,100%);fill-opacity:1;" d="M 25.089844 20.476562 L 25.089844 28.121094 L 35.980469 28.121094 C 34.554688 32.75 30.6875 36.0625 25.089844 36.0625 C 18.425781 36.0625 13.023438 30.660156 13.023438 24 C 13.023438 17.339844 18.425781 11.9375 25.089844 11.9375 C 28.085938 11.9375 30.820312 13.035156 32.933594 14.84375 L 38.558594 9.214844 C 35.007812 5.976562 30.277344 4 25.089844 4 C 14.042969 4 5.085938 12.953125 5.085938 24 C 5.085938 35.046875 14.042969 44 25.089844 44 C 41.882812 44 45.589844 28.300781 43.941406 20.503906 Z M 25.089844 20.476562 "/>
</g>
</svg>
