<?xml version="1.0" encoding="utf-8"?>
<!-- Generator: Adobe Illustrator 21.0.0, SVG Export Plug-In . SVG Version: 6.00 Build 0)  -->
<svg version="1.1" id="Layer_1" xmlns="http://www.w3.org/2000/svg" xmlns:xlink="http://www.w3.org/1999/xlink" x="0px" y="0px"
	 viewBox="0 0 745 516" style="enable-background:new 0 0 745 516;" xml:space="preserve">
<style type="text/css">
	.st0{fill:#00FFFF;}
	.st1{fill:#FF75D6;}
	.st2{fill:#FFE403;}
</style>
<g id="flowRoot907-6" transform="matrix(0.63276013,0,0,0.97822926,785.6478,40.05819)">
</g>
<g id="g983-3-5" transform="matrix(1.0945251,0,0,1.0945251,435.44768,-169.28199)">
	<g id="flowRoot939-6-6" transform="matrix(3.06195,0,0,3.06195,-1219.2896,-55.026804)">
	</g>
	<g id="flowRoot949-5-2" transform="matrix(3.2322108,0,0,3.2322108,-2598.9108,-16.828967)">
	</g>
</g>
<g>
	<path class="st0" d="M570.1,130.6L539,13c-0.9-3.2-3.4-5.8-6.6-6.7c-3.2-0.9-6.7,0-9.1,2.4L437,94.5c-2.4,2.4-3.3,5.8-2.5,9.1
		c0.9,3.2,3.4,5.8,6.6,6.7l117.5,31.9c0.8,0.2,1.6,0.3,2.5,0.3c2.4,0,4.8-1,6.6-2.7C570,137.3,571,133.9,570.1,130.6z"/>
	<path class="st1" d="M727.9,242l-87.8-84.3c-2.4-2.3-5.9-3.2-9.1-2.2c-3.2,0.9-5.7,3.5-6.5,6.8l-29.1,118.2c-0.8,3.3,0.2,6.7,2.6,9
		c1.8,1.7,4.1,2.6,6.5,2.6c0.9,0,1.8-0.1,2.6-0.4L724,257.8c3.2-0.9,5.7-3.5,6.5-6.8C731.3,247.8,730.3,244.4,727.9,242z"/>
	<path class="st2" d="M390.5,47.2c-1.5-3-4.5-4.9-7.8-5.1l-121.5-6.8c-3.3-0.2-6.5,1.4-8.4,4.2c-1.8,2.8-2,6.4-0.5,9.4l54.9,108.6
		c1.5,3,4.5,4.9,7.8,5.1c0.2,0,0.3,0,0.5,0c3.2,0,6.1-1.6,7.8-4.2L390,56.5C391.9,53.7,392.1,50.2,390.5,47.2z"/>
	<g>
		<g>
			<path d="M71.1,209.5c12.5,4.6,21.7,10.3,27.5,17c5.8,6.7,8.8,15,8.8,25c0,12-4.2,21.9-12.6,29.7c-10,9.3-24.6,14-43.8,14
				c-7.2,0-16.4-1.6-27.6-4.9c-3.5-1-6.2-3.1-8-6.3s-2.3-6.6-1.4-10.1l0.1-0.3c0.9-3.8,3.1-6.7,6.5-8.6c3.4-1.9,7-2.3,10.7-1.1
				c9,2.8,16.2,4.2,21.6,4.2c6.7,0,11.9-1.3,15.6-3.9c3.8-2.5,5.7-6,5.7-10.5c0-3.9-1.7-7.3-5.1-10.1c-3.4-2.8-9.3-5.6-17.7-8.6
				c-25.8-9.2-38.7-23.2-38.7-41.8c0-12.6,4.9-22.8,14.7-30.6c9.8-7.8,22.6-11.7,38.5-11.7c5.7,0,13.4,1.2,23,3.7
				c3.7,0.9,6.4,2.9,8.3,6.1c1.9,3.3,2.4,6.7,1.4,10.3l-0.1,0.3c-1,3.5-3.1,6.1-6.2,7.9c-3.2,1.8-6.5,2.2-10,1.2
				c-6.4-1.8-12-2.6-16.8-2.6c-6.3,0-11.2,1.3-14.8,4c-3.1,2.4-4.7,5.3-4.7,8.8c0,4,2,7.4,6,10.1C55.1,203,61.5,205.9,71.1,209.5z"
				/>
		</g>
		<g>
			<path d="M286.9,277.4c0,4-1.4,7.5-4.3,10.4c-2.9,2.9-6.3,4.3-10.4,4.3H272c-4.1,0-7.5-1.4-10.4-4.3c-2.9-2.9-4.3-6.4-4.3-10.4
				V232c0-5-1.8-9.2-5.4-12.6c-3.5-3.5-7.8-5.1-12.8-5c-4.8,0.1-8.8,2-12.1,5.7c-3.3,3.6-4.9,7.8-4.9,12.6v44.7
				c0,4-1.4,7.5-4.3,10.4c-2.9,2.9-6.4,4.3-10.4,4.3h-3c-4.1,0-7.5-1.4-10.4-4.3c-2.9-2.9-4.4-6.4-4.4-10.4V232
				c0-5-1.8-9.2-5.3-12.6c-3.6-3.5-7.9-5.1-12.8-5c-4.8,0.1-8.8,2-12.1,5.7c-3.3,3.6-4.9,7.8-4.9,12.6v44.7c0,4-1.5,7.5-4.4,10.4
				c-2.9,2.9-6.3,4.3-10.4,4.3h-2.2c-4,0-7.5-1.4-10.4-4.3c-2.9-2.9-4.3-6.4-4.3-10.4v-76.2c0-2.8,1-5.2,3-7.1c2-2,4.4-3.1,7.2-3.1
				h11.8c2.8,0,5.2,1,7.1,3.1c2,2,3,4.3,3,7.1v0.1c0.8-0.5,1.9-1.5,3.3-2.9c1.8-1.8,3.1-3.1,3.9-3.7c3.4-3,7.1-4.9,11-5.7
				c17.7-3.7,31.1,2,40.2,17.1h0.7c10.5-10.3,18.5-16,23.9-17.1c15.6-3.3,27.9,0.8,37,12.3c7.9,9.9,12,22.9,12,38.8V277.4z"/>
		</g>
		<g>
			<path d="M298.2,240.7c0-14.3,4.8-26.4,14.4-36.5c9.6-10.1,21.1-15.1,34.6-15.1c11.4,0,19.3,5,23.7,15.1v-0.1c0-3.3,1.2-6,3.5-8.4
				c2.3-2.3,5.1-3.5,8.4-3.5h8.4c3.3,0,6.1,1.2,8.5,3.5c2.4,2.4,3.6,5.2,3.6,8.5v81.4c0,1.8-0.6,3.4-1.9,4.6
				c-1.3,1.3-2.8,1.9-4.6,1.9h-13.4c-2,0-4.8-1.9-8.3-5.6c-1.5-1.6-3.3-2.5-5.3-2.7c-2.1-0.3-4,0.2-5.8,1.3c-7.2,4.7-12.7,7-16.6,7
				c-13.5,0-25.1-5-34.6-15.1C303,267,298.2,254.9,298.2,240.7z M328.8,239.9c0,7.7,2,14.2,6.1,19.7c4.1,5.4,9.1,8,15,8
				c3.5,0.5,6.9,0.2,10.4-0.9c6.9-2.4,10.5-7.8,10.7-16.2V225c-1.6-4.2-5.3-7.5-11.2-9.8c-6.8-2.6-13.6-2.3-20.4,1
				c-3.3,1.6-5.9,4.5-7.8,8.8c-1.8,4.1-2.8,8.6-2.8,13.7V239.9z"/>
		</g>
		<g>
			<path d="M477.1,187.8c2,0,3.5,0.7,4.7,2.2c1.2,1.5,1.6,3.2,1.2,5l-2.3,10.5c-1,6.6-3.6,9.5-7.6,8.8c-5.9-1-11.8,0.7-17.5,4.9
				c-5.1,3.7-8,7.5-8.8,11.3c-0.1,0.7-0.2,1.5-0.3,2.4v0.1h-0.1v43.3c0,4.3-1.5,7.9-4.6,11c-3.1,3.1-6.8,4.7-11.1,4.7h-0.3
				c-4.3,0-8-1.6-11.1-4.7c-3.1-3.1-4.6-6.7-4.6-11v-69.6c0-4.3,1.5-8.1,4.6-11.2c3.1-3.1,6.9-4.6,11.2-4.6h0.5
				c5.8,0,11.1,3.4,15.8,10.3c2.2-3.5,4.4-5.9,6.6-7.4C459.1,189.8,460.4,187.8,477.1,187.8z"/>
		</g>
		<g>
			<path d="M544.2,265.8c2.4,1.2,3.9,3.3,4.4,6.3c0.5,2.6,0.1,5.6-1,8.8c-2.8,7.5-6.8,11.2-11.9,11.2c-11.8,0-20.4-5.3-25.9-15.9
				c-4.4-8.5-6.7-20-6.7-34.4v-30.2h-4.3c-2.9,0-5.4-1-7.4-3.1s-3.1-4.5-3.1-7.4v-0.2c0-2.9,1-5.3,3.1-7.3c2-2.1,4.5-3.2,7.4-3.2
				h4.3v-8.7c0-5.2,2-9.3,6.1-12.4c4.1-3.1,8.6-4,13.5-2.6l0.4,0.1c3.4,0.9,6.1,2.7,8.3,5.5c2.2,2.9,3.3,6,3.3,9.5v8.7h9.4
				c2.9,0,5.3,1.1,7.3,3.2c2.1,2,3.2,4.5,3.2,7.3v0.2c0,2.9-1.1,5.4-3.2,7.4c-2,2-4.5,3.1-7.3,3.1h-9.4v32.2
				C534.6,255.2,537.8,262.6,544.2,265.8z"/>
		</g>
		<g>
			<path d="M102.2,392.5c16.2,6,24.4,16.6,24.4,31.7c0,11.6-5.3,21.2-15.8,28.7c-11.5,8.2-31.3,12.2-59.5,12.2
				c-4.9,0-12.1,0.2-21.6,0.7c-4.1,0.2-7.8-1.1-10.9-3.9c-3-2.7-4.6-6.1-4.6-10.2V341.4c0-3.9,1.5-7.3,4.4-10
				c2.9-2.8,6.4-4.1,10.5-4.1c2.1,0.1,6.8,0.2,14.1,0.3c6.4,0.2,11.5,0.3,15.3,0.3c20.1,0,35.1,2.5,44.9,7.6
				c12,5.6,17.9,14.5,17.9,26.5c0,11.6-6.5,20.4-19.4,26.4c-0.9,0.4-1.3,1.1-1.2,2C100.8,391.5,101.3,392.1,102.2,392.5z
				 M48.2,378.2c0,1.2,0.4,2.1,1.2,3c0.9,0.8,1.9,1.2,3.1,1.2h6.1c8.3,0,14.7-1.4,19.2-4.2c4.4-2.7,6.5-6.4,6.5-11
				c0-9.5-7.5-14.3-22.6-14.3c-3.7,0-6.8,0.1-9.5,0.3c-2.7,0.2-4,1.6-4,4.1V378.2z M61.5,441.3c8.4,0,15.2-1.4,20.4-4.1
				c5.8-3.1,8.7-7.7,8.7-13.9c0-5.8-3-10.2-8.9-13.1c-5.4-2.7-12.6-4.1-21.8-4.1h-7c-1.2,0-2.3,0.4-3.3,1.2c-0.9,0.8-1.3,1.8-1.3,3
				v26.8c0,1.1,0.4,2,1.3,2.9c0.8,0.8,1.9,1.2,3.1,1.2C54.3,441.2,57.3,441.3,61.5,441.3z"/>
		</g>
		<g>
			<path d="M137.4,378c0-4.3,1.6-7.9,4.7-11c3.1-3.1,6.8-4.6,11.2-4.6h0.3c4.4,0,8.2,1.5,11.3,4.6c3.1,3.1,4.7,6.7,4.7,11v38.4
				c0,11.5,3.2,18.8,9.7,21.9c6.8,3.3,13.9,2.7,21.2-1.7c6.4-3.9,10.1-8.1,10.9-12.7c0.1-0.7,0.2-1.5,0.3-2.4c0,0.1,0,0,0.1-0.1V378
				c0-4.3,1.6-7.9,4.7-11c3.1-3.1,6.9-4.6,11.3-4.6h0.4c4.4,0,8.2,1.5,11.3,4.6c3.1,3.1,4.7,6.7,4.7,11v75.2c0,2.8-1,5.2-3.1,7.2
				c-2,2-4.5,3-7.4,3h-11.9c-2.8,0-5.3-1-7.3-3c-2.1-2-3.1-4.3-3.1-7.1v-0.1c-13.1,7.5-21.1,11.6-24.2,12.2
				c-15.9,3.2-28.4-0.9-37.6-12.4c-8.1-9.9-12.2-22.8-12.2-38.7V378z"/>
		</g>
		<g>
			<path d="M345,363.9c5.1,0,9.1,2,12,6c2.9,4.1,3.5,8.5,1.9,13.1c-20.9,58.9-31.7,89.2-32.2,90.9c-3.5,11.3-9.8,20-19,26.2
				c-10,6.7-21.2,8.8-33.8,6.3c-1.5-0.3-3.2-0.8-5.3-1.7c-4.9-2.1-7.4-5.8-7.4-11.1v-0.2c0-3.3,1.2-6.1,3.5-8.5
				c2.3-2.4,5.2-3.6,8.5-3.6c3-0.1,5.8-0.7,8.5-2c6.6-3.1,9.8-10.4,9.8-21.9v-0.5c-2.5-12.5-12-36.7-28.4-72.7
				c-2.2-4.8-1.9-9.3,1-13.8c2.9-4.3,7-6.5,12.3-6.5h2.6c3.2,0,6,0.9,8.6,2.7c2.6,1.8,4.3,4.1,5.3,7.1l20.2,60.2
				c2.1-9.2,7.9-29.1,17.4-59.9c1-3.1,2.7-5.5,5.3-7.3c2.6-1.9,5.5-2.9,8.7-2.9H345z"/>
		</g>
		<g>
			<path d="M468.9,448c-11.7,14.3-33,17.9-43.6,17.9c-1,0-5.2,0-6.2,0c-14.9,0-27.6-5-38.1-15.1c-10.5-10.1-15.8-22.2-15.8-36.4
				c0-14.3,5.3-26.4,15.8-36.5c10.6-10.1,23.3-15.1,38.1-15.1c1,0,2.1,0,3.1,0.1c1-0.1,2.1-0.1,3.1-0.1c14.9,0,27.5,5,38,15.1
				c10.6,10.1,15.9,22.2,15.9,36.5v0.1c0,2.6-1,4.9-3,6.8c-2,1.8-4.4,2.8-7.2,2.8h-73.5c2.1,5.3,5.5,9.5,10.3,12.7
				c4.9,3.3,10.4,4.7,16.4,5c11.9,0.5,21.9-1.8,35-8.6c3.4-1.8,9.4-0.3,11.8,2.8c2.5,3,3,9,0,11.8L468.9,448z M422.1,386.9
				c-5.9,0-11.2,1.6-16.1,4.8c-4.7,3.1-8.2,7.2-10.4,12.3h52.8c-2.1-5.1-5.6-9.2-10.3-12.3C433.4,388.5,428,386.9,422.1,386.9z"/>
		</g>
		<g>
			<path d="M554.9,361.5c2,0.2,3.6,0.7,4.8,2.2c1.2,1.5,1.7,3.2,1.2,5l-2.4,10.5c-1,6.6-3.6,9.5-7.8,8.8c-6-0.9-12,0.7-17.8,4.9
				c-5.2,3.7-8.2,7.5-8.9,11.3c-0.1,0.7-0.2,1.5-0.3,2.4v0.1h-0.1V450c0,4.3-1.6,7.9-4.7,11c-3.1,3.1-6.9,4.7-11.3,4.7h-0.3
				c-4.4,0-8.2-1.6-11.3-4.7c-3.1-3.1-4.7-6.7-4.7-11v-69.6c0-4.3,1.6-8.1,4.7-11.2c3.2-3.1,7-4.6,11.4-4.6h0.5
				c5.9,0,11.3,3.4,16.1,10.3c2.3-3.5,4.5-5.9,6.7-7.4C536.5,363.5,539.7,360.2,554.9,361.5z"/>
		</g>
	</g>
</g>
</svg>
