<svg width="1440" height="1024" viewBox="0 0 1440 1024" fill="none" xmlns="http://www.w3.org/2000/svg">
<g clip-path="url(#clip0)">
<rect width="1440" height="1024" fill="#FAFAFA"/>
<path d="M1200.8 1149.29L1073.78 1193.76C1016.81 1121.4 935.532 968.845 1066.17 937.483C1196.82 906.122 1277.47 978.246 1301.47 1018.23L1271.62 1069.13L1200.8 1149.29Z" fill="#FF75D6"/>
<path d="M1073.08 1144.43L1308.27 1144.43L1314.73 1148.36C1405.19 1123.04 1585.07 1051.84 1580.93 969.589C1575.76 866.78 1385.16 802.606 1336.7 817.013C1288.24 831.419 1206.83 906.725 1179.69 969.589C1157.98 1019.88 1082.34 1041.62 1047.24 1046.2L1073.08 1144.43Z" fill="#00FFFF"/>
<path d="M1316.22 969.557C1252.43 976.132 1207.17 1016.13 1192.51 1035.3L1218.31 1062.31L1363.71 1082.85L1465.14 1053.5C1467.49 987.364 1469.25 861.66 1457.52 887.959C1442.86 920.833 1395.96 961.339 1316.22 969.557Z" fill="#FFE403"/>
<path d="M324.228 -169.436L520.067 -238C607.909 -126.433 733.234 108.789 531.8 157.145C330.365 205.501 206.002 94.2947 169 32.6473L215.027 -45.8404L324.228 -169.436Z" fill="#FF75D6"/>
<path d="M521.151 -161.942H158.52L148.558 -168C9.08456 -128.959 -268.268 -19.1736 -261.892 107.642C-253.922 266.161 39.9679 365.109 114.686 342.897C189.404 320.684 314.929 204.571 356.771 107.642C390.245 30.0986 506.871 -3.42265 561 -10.4904L521.151 -161.942Z" fill="#00FFFF"/>
<path d="M146.256 107.691C244.611 97.5537 314.4 35.8838 337 6.31602L297.224 -35.3202L73.0318 -67L-83.3604 -21.7432C-86.9764 80.2355 -89.6884 274.055 -71.6084 233.505C-49.0083 182.818 23.3117 120.363 146.256 107.691Z" fill="#FFE403"/>
</g>
<defs>
<clipPath id="clip0">
<rect width="1440" height="1024" fill="white"/>
</clipPath>
</defs>
</svg>
